# xmcd
#
# Track frame offsets: 
#        150
#        20846
#        50697
#        71189
#        116663
#        151519
#        165908
#        178817
#        200311
#        217489
#        239534
#        283452
#
# Disc length: 3936 seconds
#
# Revision: 2
# Processed by: cddbd v1.5.2PL0 Copyright (c) Steve Scherf et al.
# Submitted via: ExactAudioCopy v0.99pb5
#
DISCID=bb0f5e0c
DTITLE=Various Artist - Sunday Classics - CD2
DYEAR=2004
DGENRE=Classical
TTITLE0=Vaughan Williams: Fantasia on Greensleeves
TTITLE1=Canteloube: Songs Of The Auvergne - Bailero
TTITLE2=Massenet: Meditation from Thais
TTITLE3=Tchaikovsky :Serenade for String Orchestra in C Major, op. 48 
TTITLE3=Elegy
TTITLE4=Copland: Concerto for Clarinet, Harp and Strings - 1st Movement
TTITLE5=Fauré: Après un rêve in C Minor Op. 7 No. 1
TTITLE6=Respighi: Ancient Airs And Dances Suite No. 3 - Siciliana Igno
TTITLE6=to
TTITLE7=Rachmaninov: Vocalise, Op. 34 No. 14
TTITLE8=Grieg: Holberg Suite For String Orchestra Op. 40 - Sarabande -
TTITLE8=Andante
TTITLE9=Mozart: Serenade in D Major K185
TTITLE10=Dvorak: Symphony No 9 in E Minor (New World) Op. 95 - Adagio 
TTITLE10=Allegro Molto
TTITLE11=Vivaldi: Concerto in A Major for Strings and Continuo, RV 158
TTITLE11=Allegro Molto
EXTD=YEAR: 2004
EXTT0=
EXTT1=
EXTT2=
EXTT3=
EXTT4=
EXTT5=
EXTT6=
EXTT7=
EXTT8=
EXTT9=
EXTT10=
EXTT11=
PLAYORDER=
